<?xml version="1.0" encoding="utf-8"?>
<!-- Generator: Adobe Illustrator 25.1.0, SVG Export Plug-In . SVG Version: 6.00 Build 0)  -->
<svg version="1.1" id="Layer_1" xmlns="http://www.w3.org/2000/svg" xmlns:xlink="http://www.w3.org/1999/xlink" x="0px" y="0px"
	 viewBox="0 0 399.35 166.64" style="enable-background:new 0 0 399.35 166.64;" xml:space="preserve">
<style type="text/css">
	.st0{fill:#FFFFFF;}
</style>
<g>
	<path class="st0" d="M80.62,97.06c0-18.47-9.01-28.15-25.67-28.15c-18.24,0-29.5,15.09-29.5,34.01v60.8H0V49.09h24.77v11.26h4.5
		c5.85-7.88,16.44-14.19,32.43-14.19c28.15,0,44.36,17.79,44.36,46.62v70.93H80.62V97.06z"/>
	<path class="st0" d="M216.17,60.35h4.5V0h25.45v163.71h-24.77v-11.26h-4.5c-6.31,7.88-16.21,14.19-33.1,14.19
		c-31.53,0-50.89-25.67-50.89-60.35s19.59-60.13,50.89-60.13C200.41,46.16,210.09,52.24,216.17,60.35z M221.35,106.29
		c0-20.04-9.46-38.51-31.75-38.51c-20.94,0-31.3,16.44-31.3,38.51c0,22.29,10.36,38.73,31.3,38.73
		C211.89,145.02,221.35,126.56,221.35,106.29z"/>
	<path class="st0" d="M345.87,70.71h-30.18v56.52c0,9.23,4.5,14.41,17.12,14.41h13.06v22.07H331.9c-25.67,0-41.66-6.08-41.66-32.65
		V70.71H269.3V49.09h20.94V15.76h25.45v33.33h30.18V70.71z"/>
</g>
<rect x="376.26" y="141.97" class="st0" width="23.09" height="21.74"/>
</svg>
