<?xml version="1.0" standalone="no"?>
<!DOCTYPE svg PUBLIC "-//W3C//DTD SVG 20010904//EN"
 "http://www.w3.org/TR/2001/REC-SVG-20010904/DTD/svg10.dtd">
<svg version="1.0" xmlns="http://www.w3.org/2000/svg"
 width="249.000000pt" height="244.000000pt" viewBox="0 0 249.000000 244.000000"
 preserveAspectRatio="xMidYMid meet">

<g transform="translate(0.000000,244.000000) scale(0.100000,-0.100000)"
fill="#000000" stroke="none">
<path d="M1463 1952 c-116 -268 -215 -486 -220 -486 -4 1 -105 218 -223 483
-123 276 -220 480 -226 479 -17 -4 -414 -232 -414 -238 0 -3 147 -195 326
-428 179 -232 324 -426 322 -430 -2 -5 -219 20 -483 55 -264 34 -495 62 -512
63 l-33 0 0 -236 0 -236 38 6 c141 22 994 127 999 123 3 -3 -145 -198 -327
-432 -183 -235 -328 -430 -324 -435 16 -15 376 -240 384 -240 4 0 109 219 232
487 124 268 229 488 234 490 5 1 103 -218 218 -487 200 -469 210 -489 230
-478 75 39 393 223 405 233 11 11 -45 86 -322 431 -315 393 -334 419 -309 422
15 1 252 -24 526 -57 275 -33 501 -59 503 -57 2 2 2 108 1 237 l-3 235 -505
-68 c-278 -37 -515 -67 -528 -65 -22 2 29 72 624 852 l23 30 -208 118 c-114
64 -209 117 -212 117 -2 0 -99 -220 -216 -488z"/>
</g>
</svg>
