<?xml version="1.0" encoding="utf-8"?>
<!-- Generator: Adobe Illustrator 25.1.0, SVG Export Plug-In . SVG Version: 6.00 Build 0)  -->
<svg version="1.1" id="Layer_1" xmlns="http://www.w3.org/2000/svg" xmlns:xlink="http://www.w3.org/1999/xlink" x="0px" y="0px"
	 viewBox="0 0 183 159" style="enable-background:new 0 0 183 159;" xml:space="preserve">
<g>
	<path d="M57.03,40.75V71.4h-7.44V40.75c0-7.94-8.59-11.51-14.68-11.51c-8.67,0-15.13,4.84-17.52,8.24V71.4H9.94V20.65h7.45v8.05
		h0.06c3.58-5.73,10.21-9.26,17.46-9.26C48.14,19.44,57.03,28,57.03,40.75z"/>
</g>
<g>
	<path d="M110.52,20.65v7.56h-0.18c-5.09-5.58-11.77-8.77-18.4-8.77C77.4,19.44,66,29.72,66,42.86c0,13.04,11.4,23.26,25.94,23.26
		c6.75,0,14.09-3.54,18.44-8.86h0.14v5.75c0,8.51-6.1,12.65-18.66,12.65c-6.18,0-12.01-1.23-17.8-3.74l-1.4-0.61v9.58l0.5,0.29
		c4.49,2.6,11.13,4.03,18.7,4.03c16.35,0,26.1-8.39,26.1-22.45V20.65H110.52z M91.45,29.32c3.34,0,11.82,0.75,19.07,7.71v11.48
		c-4.58,5.31-13.01,7.73-18.98,7.73c-11.05,0-19.07-5.63-19.07-13.38C72.47,35.14,80.63,29.32,91.45,29.32z"/>
</g>
<g>
	<path d="M177.84,40.75V71.4h-7.44V40.75c0-7.89-8.59-11.43-14.68-11.43c-8.71,0-15.15,4.79-17.52,8.16V71.4h-7.45V6.84h7.45V28.7
		h0.06c3.58-5.73,10.21-9.26,17.46-9.26C168.95,19.44,177.84,28,177.84,40.75z"/>
</g>
<g>
	<path d="M33.34,148.47v9.11l-0.79,0.18c-2.49,0.55-4.89,0.83-7.12,0.83c-9.73,0-15.54-5.99-15.54-16.03v-26.7H-0.35v-8.82H9.89
		V93.22h7.44v13.82H30v8.82H17.33v25.57c0,5.52,2.35,7.77,8.1,7.77c2.26,0,4.6,0,6.69-0.46L33.34,148.47z"/>
</g>
<g>
	<path d="M73.15,107.43v8.92l-1.33-0.46c-1.95-0.68-4.23-1-6.99-1c-6.57,0-11.67,2.66-15.16,7.9v34.99h-7.45v-50.74h7.45v7.23h0.05
		c3.39-5.53,8.72-8.45,15.44-8.45c3.18,0,5.75,0.74,7.35,1.37L73.15,107.43z"/>
</g>
<g>
	<path d="M100.74,105.82c-6.94,0-13.68,1.73-19.5,5l-0.51,0.29v9.53l1.53-0.95c2.59-1.61,8.38-4.32,18.08-4.32
		c10.49,0,15.81,3.25,15.81,9.65v2H94.49c-12.54,0-18.63,4.85-18.63,14.81c0,8.3,5.43,17.17,20.66,17.17
		c6.92,0,13.63-3.2,19.44-9.26h0.19v8.04h7.45v-31.87C123.6,116.74,119.63,105.82,100.74,105.82z M94.49,135.36h21.66v6.05
		c-5.25,5.01-12.47,7.87-19.87,7.87c-9,0-13.71-3.79-13.71-7.53C82.57,138.66,83.49,135.36,94.49,135.36z"/>
</g>
<g>
	<path d="M182.66,127.13v30.65h-7.44v-30.65c0-7.94-8.59-11.51-14.68-11.51c-8.67,0-15.13,4.84-17.52,8.24v33.92h-7.45v-50.74h7.45
		v8.04h0.06c3.58-5.73,10.21-9.26,17.46-9.26C173.77,105.82,182.66,114.38,182.66,127.13z"/>
</g>
</svg>
