<?xml version="1.0" encoding="utf-8"?>
<!-- Generator: Adobe Illustrator 25.1.0, SVG Export Plug-In . SVG Version: 6.00 Build 0)  -->
<svg version="1.1" id="Layer_1" xmlns="http://www.w3.org/2000/svg" xmlns:xlink="http://www.w3.org/1999/xlink" x="0px" y="0px"
	 viewBox="0 0 1366 282" style="enable-background:new 0 0 1366 282;" xml:space="preserve">
<style type="text/css">
	.st0{fill:#E7014D;}
	.st1{fill:#2D2A26;}
</style>
<path class="st0" d="M661.56,8.88l-26.04,34.27v0.55l41.4-5.48v18.64l-41.4-4.94v0.55l26.32,32.9l-17.27,9.87l-16.45-38.38h-0.55
	l-17.82,38.65l-15.62-9.87l26.04-33.45v-0.55l-40.58,5.21V38.21l40.3,5.21v-0.55L594.12,9.43l16.72-9.59l17,38.11h0.55l16.72-38.38
	L661.56,8.88z"/>
<path class="st1" d="M-0.12,70.83h18.37v27.14h5.48c10.69-18.37,32.35-31.25,57.02-31.25c42.77,0,71.28,27.96,71.28,68.54v100.07
	h-18.37V135.26c0-27.69-28.51-42.22-52.91-42.22c-32.35,0-55.1,18.92-62.51,30.16v112.13H-0.12V70.83z"/>
<path class="st1" d="M211.53,268.77v-25.22c14.53,6.31,35.09,12.89,61.41,12.89c30.16,0,66.34-6.85,66.34-46.06v-22.75h-5.48
	c-13.43,17.27-37.28,29.88-60.59,29.88c-48.25,0-84.16-33.45-84.16-75.12c0-42.49,37.56-75.67,84.16-75.67
	c24.4,0,45.78,12.88,60.59,29.61h5.48v-25.5h18.37v138.72c0,52.64-40.3,72.37-84.71,72.37
	C246.62,281.93,225.24,276.72,211.53,268.77z M339.29,162.67v-41.4c-21.11-20.83-47.43-27.96-67.71-27.96
	c-38.38,0-67.44,21.11-67.44,49.08c0,29.06,29.33,48.52,67.71,48.52C294.87,190.91,323.93,181.32,339.29,162.67z"/>
<path class="st1" d="M407.56,24.23h18.37v73.75h5.48c10.69-18.37,32.35-31.25,57.02-31.25c42.77,0,71.28,27.96,71.28,68.54v100.07
	h-18.37V135.26c0-27.69-28.51-41.94-52.91-41.94c-32.35,0-55.1,18.64-62.51,29.88v112.13h-18.37V24.23z"/>
<path class="st1" d="M789.73,187.35V93.86h-34.54V70.83h34.54v-46.6h18.37v46.6h42.77v23.03H808.1v89.65
	c0,21.66,10.69,29.61,30.7,29.61c7.68,0,15.9,0,23.3-1.65v23.85c-7.4,1.65-15.35,2.74-23.3,2.74
	C810.56,238.06,789.73,221.62,789.73,187.35z"/>
<path class="st1" d="M898.84,70.83h18.37v24.4h5.48c9.32-16.17,24.95-28.51,50.17-28.51c9.05,0,17.27,1.92,23.58,4.39v23.03
	c-7.13-2.47-15.35-3.57-24.67-3.57c-25.22,0-43.04,11.24-54.56,29.06v115.69h-18.37V70.83z"/>
<path class="st1" d="M1012.35,184.88c0-23.57,10.14-46.6,59.49-46.6h76.49v-10.14c0-30.43-32.35-35.91-56.75-35.91
	c-29.61,0-50.44,7.4-62.78,15.08V83.17c17.55-9.87,39.48-16.45,64.15-16.45c34.54,0,73.74,11.79,73.74,64.43v104.18h-18.37v-27.14
	h-5.48c-16.45,17.55-38.11,31.25-64.15,31.25C1030.44,239.44,1012.35,212.57,1012.35,184.88z M1148.32,184.88v-25.22h-76.49
	c-37.56,0-43.59,11.24-43.59,24.95c0,14.53,16.72,28.79,49.62,28.79C1107.2,213.39,1132.15,200.78,1148.32,184.88z"/>
<path class="st1" d="M1213.85,70.83h18.37v27.14h5.48c10.69-18.37,32.35-31.25,57.02-31.25c42.77,0,71.28,27.96,71.28,68.54v100.07
	h-18.37V135.26c0-27.69-28.51-42.22-52.91-42.22c-32.35,0-55.1,18.92-62.51,30.16v112.13h-18.37V70.83z"/>
</svg>
